<?xml version="1.0" standalone="no"?>
<!DOCTYPE svg PUBLIC "-//W3C//DTD SVG 1.1//EN" "http://www.w3.org/Graphics/SVG/1.1/DTD/svg11.dtd" >
<!--
2013-9-30: Created.
-->
<svg>
<metadata>
Created by iconfont
</metadata>
<defs>

<font id="ywpui_iconfont" horiz-adv-x="1024" >
  <font-face
    font-family="ywpui_iconfont"
    font-weight="500"
    font-stretch="normal"
    units-per-em="1024"
    ascent="896"
    descent="-128"
  />
    <missing-glyph />
    
    <glyph glyph-name="icon_move_warehouse_position" unicode="&#60045;" d="M365.714286-36.571428999999966l219.428571 109.714286 0 179.419429-219.428571-93.696 0-195.437714zM329.142857 222.86628599999995l230.838857 98.889143-230.838857 98.889143-230.838857-98.889143zM950.857143-36.571428999999966l219.428571 109.714286 0 179.419429-219.428571-93.696 0-195.437714zM914.285714 222.86628599999995l230.838857 98.889143-230.838857 98.889143-230.838857-98.889143zM658.285714 390.290286l219.428571 94.281143 0 151.990857-219.428571-93.696 0-152.576zM621.714286 606.866286l251.977143 108.032-251.977143 108.032-251.977143-108.032zM1243.428571 310.85714299999995l0-237.714286q0-20.553143-10.825143-38.253714t-29.696-26.843429l-256-128q-14.262857-7.972571-32.548571-7.972571t-32.548571 7.972571l-256 128q-2.852571 1.170286-4.022857 2.267429-1.170286-1.170286-4.022857-2.267429l-256-128q-14.262857-7.972571-32.548571-7.972571t-32.548571 7.972571l-256 128q-18.870857 9.142857-29.696 26.843429t-10.825143 38.253714l0 237.714286q0 21.723429 12.288 40.009143t32.256 27.428571l248.027429 106.276571 0 228.571429q0 21.723429 12.288 40.009143t32.256 27.428571l256 109.714286q13.165714 5.705143 28.598857 5.705143t28.598857-5.705143l256-109.714286q19.968-9.142857 32.256-27.428571t12.288-40.009143l0-228.571429 248.027429-106.276571q20.553143-9.142857 32.548571-27.428571t11.995429-40.009143z"  horiz-adv-x="1244" />

    
    <glyph glyph-name="icon_message" unicode="&#58951;" d="M958.359001 609.058802c0 64.308655-52.132334 116.440989-116.440989 116.440989L181.453678 725.499791c-64.308655 0-116.440989-52.132334-116.440989-116.440989l0-448.63995c0-64.308655 52.132334-116.440989 116.440989-116.440989l660.464333 0c64.308655 0 116.440989 52.132334 116.440989 116.440989L958.359001 609.058802zM843.814198 683.5442370000001c12.059664 0 23.444968-3.465938 33.519418-8.598842L530.749016 346.65239399999996c-1.227967-1.161453-1.156336-0.916882-1.752924-1.868557-1.426489-1.067308-6.055926-3.922333-15.449877-3.922333-9.397021 0-14.025435 2.75474-15.4509 3.818979-0.676405 1.077541-0.662079 0.716314-1.995447 1.940189l-353.122503 324.412624c11.609409 7.557116 25.445532 12.509918 40.300868 12.509918L843.814198 683.543214zM916.403446 159.51527299999998c0-40.857547-31.730679-73.582879-72.589248-73.582879L183.27721 85.93239400000004c-40.85857 0-75.28566 32.725332-75.28566 73.582879L107.99155 608.342488c0 10.630105 2.860141 20.735253 6.909363 29.882588l351.486236-322.096882c4.91187-5.302773 19.479657-17.676591 47.009663-17.676591 27.799136 0 42.303478 12.618389 47.076178 17.830087l346.800517 328.899822c6.251378-10.860349 9.129938-23.433712 9.129938-36.838L916.403446 159.51527299999998z"  horiz-adv-x="1024" />

    
    <glyph glyph-name="icon_synch" unicode="&#59102;" d="M817.926086 71.89774899999998l-33.619702 33.623795c67.307965 68.77948 108.87057 162.728198 108.87057 266.540565 0 210.568786-170.671101 381.177466-381.177466 381.177466-26.38595 0-52.001351-3.009544-76.785827-8.262174l51.617611-43.2265c10.053983-8.518001 11.334139-23.503297 2.817162-33.621748-8.390088-10.05603-23.438828-11.336186-33.493835-2.883677l-106.374726 89.211834-3.136433 2.625804c-0.89744 0.704035-1.281179 1.727341-1.986237 2.560312l-4.930289 4.931313c0.255827 0.128937 0.576121 0.25685 0.896416 0.38374-2.113127 4.227278-2.818185 9.028631-2.177596 13.641695-0.063445 6.852058 2.49789 13.639648 8.198729 18.443048l109.511159 91.901083c10.055007 8.452509 25.103748 7.172353 33.493835-2.946099 8.516977-10.118452 7.235798-25.169239-2.882654-33.621748l-76.914764-64.48978c32.789801 8.196683 66.796312 13.000082 102.147448 13.000082 236.8258 0 428.824649-191.998849 428.824649-428.824649C940.824137 255.12277099999994 893.879965 149.197276 817.926086 71.89774899999998L817.926086 71.89774899999998zM130.823046 372.06210999999996c0-210.506365 170.670078-381.175419 381.176442-381.175419 40.795125 0 80.053244 6.53074 116.875894 18.442024l-67.883063 56.933687c-10.05603 8.390088-11.399631 23.438828-2.947122 33.493835 8.516977 10.053983 23.50432 11.398608 33.55728 2.947122l109.513206-91.902106c6.083555-5.122671 8.580422-12.617365 8.005324-19.981077 0.575098-7.363711-1.921769-14.793938-8.005324-19.97903l-109.447714-91.837638c-10.05603-8.388041-25.105794-7.106862-33.559327 3.009544-8.452509 9.992585-7.108908 25.106818 2.947122 33.494858l46.174646 38.679951c-30.676673-7.043417-62.441121-11.014868-95.166453-11.014868-236.891292 0.063445-428.888094 192.062294-428.888094 428.888094 0 123.023918 52.064796 233.624898 135.064139 311.819818l33.620725-33.685193C177.508321 580.6456820000001 130.823046 481.893564 130.823046 372.06210999999996L130.823046 372.06210999999996z"  horiz-adv-x="1024" />

    
    <glyph glyph-name="icon_close" unicode="&#58908;" d="M844.632843 6.97204099999999a25.492604 25.492604 0 0 0-17.180288 6.634094L161.149237 617.997382c-10.465352 9.492188-11.253298 25.671683-1.76111 36.136012 9.493212 10.466376 25.671683 11.253298 36.136012 1.76111l666.305365-604.392271c10.465352-9.492188 11.253298-25.670659 1.760086-36.134988-5.048993-5.566786-11.990079-8.395204-18.956747-8.395204zM177.444365 4.410706000000005c-6.952342 0-13.879102 2.817162-18.928095 8.363481-9.509585 10.44898-8.748245 26.629497 1.700735 36.139082L825.518506 654.40764c10.44898 9.509585 26.627451 8.750291 36.139082-1.700735 9.509585-10.44898 8.748245-26.629497-1.700735-36.139082L194.656375 11.073451999999975a25.486464 25.486464 0 0 0-17.21201-6.662746z"  horiz-adv-x="1024" />

    
    <glyph glyph-name="icon_move_uppermost" unicode="&#58928;" d="M554.666667-85.33333300000004V579.6522669999999l225.826133-225.826134a42.666667 42.666667 0 1 1 60.347733 60.347734l-298.666666 298.666666a42.666667 42.666667 0 0 1-60.347734 0l-298.666666-298.666666a42.530133 42.530133 0 0 1 0-60.347734 42.666667 42.666667 0 0 1 60.347733 0l225.826133 225.826134V-85.33333300000004a42.666667 42.666667 0 0 1 85.333334 0zM102.4 827.733333h819.2a34.133333 34.133333 0 0 1 0 68.266667H102.4a34.133333 34.133333 0 1 1 0-68.266667z"  horiz-adv-x="1024" />

    
    <glyph glyph-name="icon_on" unicode="&#58947;" d="M1258.968178 681.870222H422.627556c-144.340385 0-261.355141-133.070696-261.355141-297.212207 0-164.145304 117.014756-297.214104 261.355141-297.214104h836.340622c144.340385 0 261.355141 133.070696 261.355141 297.214104 0 164.141511-117.014756 297.212207-261.355141 297.212207z m0-564.709452H422.627556c-129.911467 0-235.222281 119.760593-235.222282 267.497245s105.310815 267.495348 235.222282 267.495348h836.340622c129.911467 0 235.222281-119.760593 235.222281-267.495348s-105.310815-267.497244-235.222281-267.497245z m0 0M994.478459 384c0-125.1328 101.438578-226.565689 226.561897-226.565689 125.1328 0 226.571378 101.430993 226.571377 226.565689 0 125.121422-101.438578 226.565689-226.571377 226.565689-125.123319 0-226.561896-101.444267-226.561897-226.565689z m0 0M498.318222 521.5744c29.333807 0 54.749867-11.140741 76.250074-33.416533 21.500207-22.277689 32.250311-50.083081 32.250311-83.416178 0-34.332444-10.833541-62.833778-32.500622-85.500208s-47.890963-34.000593-78.665955-34.000592c-31.112533 0-57.249185 11.055407-78.417541 33.166222-21.166459 22.108919-31.749689 50.722133-31.749689 85.833956 0 35.889304 12.22163 65.166222 36.666785 87.832652 21.221452 19.666489 46.609067 29.500681 76.166637 29.500681z m-3.166815-12.166637c-20.224 0-36.444919-7.499852-48.666548-22.499556-15.223467-18.667141-22.833304-46.000356-22.833303-81.999644 0-36.890548 7.888593-65.278104 23.665777-85.166459 12.109748-15.111585 28.1088-22.66643 48.000948-22.66643 21.221452 0 38.750815 8.275437 52.5824 24.833896 13.833481 16.554667 20.749274 42.666667 20.749275 78.334104 0 38.667378-7.611733 67.500563-22.833304 86.499556-12.223526 15.105896-29.111941 22.664533-50.665245 22.664533zM615.484681 516.406993h61.333808l138.166044-169.500445v130.332445c0 13.888474-1.556859 22.556444-4.666785 26.000118-4.11117 4.666785-10.611674 6.99923-19.499615 6.99923h-7.8336v6.166755h78.665956v-6.166755h-8.000474c-9.557333 0-16.3328-2.889956-20.333985-8.666074-2.446222-3.557452-3.667437-11.666015-3.667437-24.333274V286.738963h-5.999882l-148.999585 182.00083v-139.167289c0-13.89037 1.49997-22.558341 4.499911-26.000119 4.221156-4.666785 10.721659-6.99923 19.499615-6.999229h8.000474v-6.166756h-78.665956v6.166756h7.8336c9.667319 0 16.499674 2.888059 20.50086 8.666074 2.44243 3.555556 3.667437 11.666015 3.667437 24.333274V486.741333c-6.557393 7.666726-11.529481 12.722252-14.916267 15.166578-3.390578 2.44243-8.362667 4.721778-14.916267 6.834252-3.223704 0.999348-8.112356 1.49997-14.665955 1.49997v6.16486z"  horiz-adv-x="1683" />

    
    <glyph glyph-name="icon_off" unicode="&#58948;" d="M408.278281 683.7627259999999c-144.340385 0-261.355141-133.070696-261.35514-297.212207 0-164.145304 117.014756-297.214104 261.35514-297.214104h836.338726c144.340385 0 261.355141 133.070696 261.355141 297.214104s-117.014756 297.212207-261.355141 297.212207H408.278281z m0-564.709452c-129.911467 0-235.222281 119.760593-235.222281 267.497245s105.310815 267.495348 235.222281 267.495348h836.338726c129.913363 0 235.222281-119.758696 235.222282-267.495348S1374.53037 119.05327399999999 1244.617007 119.05327399999999H408.278281z m0 0M672.766104 385.892504c0 125.121422-101.440474 226.565689-226.563793 226.565689-125.1328 0-226.569481-101.44237-226.569481-226.565689 0-125.1328 101.436681-226.565689 226.569481-226.565689 125.123319 0.001896 226.563793 101.432889 226.563793 226.565689z m0 0M864.388741 516.568178c29.333807 0 54.749867-11.140741 76.250074-33.416534 21.500207-22.277689 32.250311-50.083081 32.250311-83.416177 0-34.332444-10.833541-62.833778-32.500622-85.500208s-47.890963-34.000593-78.665956-34.000592c-31.110637 0-57.249185 11.055407-78.417541 33.166222-21.166459 22.108919-31.749689 50.722133-31.749688 85.833955 0 35.889304 12.22163 65.166222 36.666785 87.832652 21.221452 19.668385 46.609067 29.500681 76.166637 29.500682z m-3.166815-12.166637c-20.224 0-36.444919-7.499852-48.666548-22.499556-15.223467-18.667141-22.833304-46.000356-22.833304-81.999644 0-36.890548 7.888593-65.278104 23.665778-85.16646 12.109748-15.111585 28.1088-22.66643 48.000948-22.666429 21.221452 0 38.750815 8.275437 52.5824 24.833896 13.833481 16.554667 20.749274 42.666667 20.749274 78.334104 0 38.667378-7.611733 67.500563-22.833304 86.499555-12.22163 15.107793-29.110044 22.664533-50.665244 22.664534zM1055.888119 499.069156v-88.833897h41.166696c9.441659 0 16.359348 2.08403 20.749274 6.250193 4.38803 4.166163 7.30643 12.416948 8.749511 24.750459h6.166756v-76.500385h-6.166756c-0.111881 8.776059-1.249659 15.22157-3.417126 19.332741-2.167467 4.109274-5.167407 7.192652-8.999822 9.250133-3.832415 2.055585-9.526993 3.083378-17.083733 3.083378h-41.166697v-70.99923c0-11.444148 0.722489-19.000889 2.167467-22.666429 1.109333-2.778074 3.441778-5.167407 6.99923-7.166104 4.888652-2.666193 9.99917-3.999289 15.333451-3.999289h8.167349v-6.166756H991.55437v6.166756h8.000474c9.33357 0 16.109037 2.723081 20.333986 8.167348 2.666193 3.555556 3.999289 12.109748 3.999289 25.66637v145.999645c0 11.442252-0.724385 19.000889-2.167467 22.66643-1.11123 2.776178-3.390578 5.167407-6.834252 7.166103a30.981689 30.981689 0 0 1-15.333452 3.999289h-8.000474v6.166756h168.167348l2.167467-49.665897h-5.833008c-2.889956 10.554785-6.250193 18.304948-10.082607 23.250489-3.832415 4.941748-8.557985 8.525748-14.16723 10.750104-5.611141 2.222459-14.307556 3.333689-26.083555 3.333689h-49.83277zM1245.722548 499.069156v-88.833897h41.166696c9.441659 0 16.359348 2.08403 20.749275 6.250193 4.38803 4.166163 7.30643 12.416948 8.749511 24.750459h6.166755v-76.500385h-6.166755c-0.111881 8.776059-1.249659 15.22157-3.417126 19.332741-2.167467 4.109274-5.167407 7.192652-8.999823 9.250133-3.832415 2.055585-9.526993 3.083378-17.083733 3.083378h-41.166696v-70.99923c0-11.444148 0.722489-19.000889 2.167467-22.666429 1.109333-2.778074 3.441778-5.167407 6.999229-7.166104 4.888652-2.666193 9.99917-3.999289 15.333452-3.999289h8.167348v-6.166756h-96.999348v6.166756h8.000474c9.33357 0 16.109037 2.723081 20.333985 8.167348 2.666193 3.555556 3.999289 12.109748 3.999289 25.66637v145.999645c0 11.442252-0.724385 19.000889-2.167467 22.66643-1.11123 2.776178-3.390578 5.167407-6.834251 7.166103a30.981689 30.981689 0 0 1-15.333452 3.999289h-8.000474v6.166756h168.167348l2.167467-49.665897h-5.833008c-2.889956 10.554785-6.250193 18.304948-10.082607 23.250489-3.832415 4.941748-8.557985 8.525748-14.16723 10.750104-5.611141 2.222459-14.307556 3.333689-26.083555 3.333689h-49.832771z"  horiz-adv-x="1680" />

    
    <glyph glyph-name="icon_move_down" unicode="&#58881;" d="M473.968 817.557v-733.558l-180.328 187.319c-4.796 4.795-12.57 4.795-17.367 0l-37.627-37.627c-4.795-4.796-4.795-12.57 0-17.367l227.011-235.807c0.229-0.272 0.465-0.541 0.721-0.797l1.259-1.259 35.009-36.367c2.568-2.567 5.99-3.746 9.352-3.564 3.369-0.188 6.8 0.991 9.372 3.562l36.267 37.627c0.241 0.243 0.463 0.496 0.68 0.752l227.05 235.852c4.797 4.796 4.797 12.57 0 17.367l-37.627 37.627c-4.795 4.795-12.569 4.795-17.367 0l-178.637-185.562v731.8c0 6.783-5.498 12.28-12.28 12.28h-53.213c-6.781 0-12.28-5.497-12.28-12.28z"  horiz-adv-x="1024" />

    
    <glyph glyph-name="icon_purchase_management" unicode="&#58905;" d="M383.054 54.325000000000045c0.427-1.321 0.822-2.66 1.186-4.017 11.63-43.401-14.127-88.012-57.529-99.642-43.401-11.63-88.012 14.127-99.642 57.529-11.629 43.401 14.127 88.012 57.529 99.642a82.592 82.592 0 0 0 5.106 1.196L148.23 637.02a14.877 14.877 0 0 1-6.931 9.034L71.44 686.387c-7.116 4.108-9.554 13.207-5.445 20.322l7.438 12.884c4.108 7.115 13.207 9.553 20.322 5.445l85.868-49.576a14.877 14.877 0 0 0 6.931-9.033L337.19 104.25300000000004a81.837 81.837 0 0 0 18.701-11.001l581.528 155.82c7.936 2.126 16.093-2.583 18.22-10.52l3.85-14.37c2.127-7.936-2.583-16.093-10.52-18.22L383.055 54.325000000000045zM253.386 689.547l486.78 130.432c15.872 4.253 32.187-5.167 36.44-21.04L907.038 312.15999999999997c4.253-15.872-5.167-32.187-21.04-36.44L399.22 145.288c-15.872-4.253-32.187 5.166-36.44 21.039l-130.432 486.78c-4.253 15.872 5.166 32.187 21.039 36.44z m241.53-407.437c2.126-7.937 10.283-12.646 18.22-10.52l273.154 73.191c7.936 2.127 12.646 10.284 10.52 18.22l-3.851 14.37c-2.127 7.937-10.284 12.647-18.22 10.52L501.584 314.70000000000005c-7.937-2.127-12.646-10.284-10.52-18.22l3.85-14.37z m101.35 115.716c2.127-7.937 10.285-12.646 18.221-10.52l149.663 40.102c7.936 2.127 12.646 10.284 10.52 18.22l-3.851 14.37c-2.127 7.937-10.284 12.646-18.22 10.52l-149.663-40.102c-7.936-2.127-12.646-10.284-10.52-18.22l3.85-14.37z m-3.158 87.231c2.126-7.936 10.284-12.646 18.22-10.52l130.845 35.06c7.936 2.127 12.646 10.284 10.52 18.22l-3.851 14.37c-2.127 7.937-10.284 12.646-18.22 10.52l-130.845-35.06c-7.936-2.126-12.646-10.284-10.52-18.22l3.85-14.37z"  horiz-adv-x="1024" />

    
    <glyph glyph-name="icon_tree_collapse" unicode="&#58910;" d="M70.4 742.4c0 45.9264 37.2736 83.2 83.2 83.2h716.8c45.9264 0 83.2-37.2736 83.2-83.2v-716.8c0-45.9264-37.2736-83.2-83.2-83.2H153.6A83.2 83.2 0 0 0 70.4 25.600000000000023V742.4z m64 0v-716.8c0-10.5984 8.6016-19.2 19.2-19.2h716.8a19.2 19.2 0 0 1 19.2 19.2V742.4A19.2 19.2 0 0 1 870.4 761.6H153.6A19.2 19.2 0 0 1 134.4 742.4zM307.2 352a32 32 0 1 0 0 64h409.6a32 32 0 1 0 0-64H307.2z"  horiz-adv-x="1024" />

    
    <glyph glyph-name="icon_tree_expand" unicode="&#58921;" d="M70.4 742.4c0 45.9264 37.2736 83.2 83.2 83.2h716.8c45.9264 0 83.2-37.2736 83.2-83.2v-716.8c0-45.9264-37.2736-83.2-83.2-83.2H153.6A83.2 83.2 0 0 0 70.4 25.600000000000023V742.4z m64 0v-716.8c0-10.5984 8.6016-19.2 19.2-19.2h716.8a19.2 19.2 0 0 1 19.2 19.2V742.4A19.2 19.2 0 0 1 870.4 761.6H153.6A19.2 19.2 0 0 1 134.4 742.4zM307.2 352a32 32 0 1 0 0 64h409.6a32 32 0 1 0 0-64H307.2zM480 588.8a32 32 0 1 0 64 0v-409.6a32 32 0 1 0-64 0V588.8z"  horiz-adv-x="1024" />

    
    <glyph glyph-name="icon_move_downmost" unicode="&#58886;" d="M472 888h80v-816H472zM261.6 372l-55.2-54.4L512 12l305.6 305.6-55.2 54.4L512 121.60000000000002zM0-40h1024v-80H0z"  horiz-adv-x="1024" />

    
    <glyph glyph-name="icon_simplest_arrow_up" unicode="&#58924;" d="M531.2 554.666667L170.666667 192c-8.533333-8.533333-21.333333-8.533333-29.866667 0-8.533333 8.533333-8.533333 21.333333 0 29.866667l362.666667 362.666666c8.533333 8.533333 21.333333 8.533333 29.866666 0 6.4-8.533333 6.4-21.333333-2.133333-29.866666zM864 192l-362.666667 362.666667c-8.533333 8.533333-8.533333 21.333333 0 29.866666 8.533333 8.533333 21.333333 8.533333 29.866667 0l362.666667-362.666666c8.533333-8.533333 8.533333-21.333333 0-29.866667-6.4-6.4-21.333333-6.4-29.866667 0z"  horiz-adv-x="1024" />

    
    <glyph glyph-name="icon_simplest_arrow_down" unicode="&#58925;" d="M503.466667 224l362.666666 362.666667c8.533333 8.533333 21.333333 8.533333 29.866667 0 8.533333-8.533333 8.533333-21.333333 0-29.866667L533.333333 192c-8.533333-8.533333-21.333333-8.533333-29.866666 0-8.533333 8.533333-8.533333 23.466667 0 32zM170.666667 584.5333330000001l362.666666-362.666666c8.533333-8.533333 8.533333-21.333333 0-29.866667-8.533333-8.533333-21.333333-8.533333-29.866666 0l-362.666667 362.666667c-8.533333 8.533333-8.533333 21.333333 0 29.866666 6.4 8.533333 21.333333 8.533333 29.866667 0z"  horiz-adv-x="1024" />

    
    <glyph glyph-name="icon_bill" unicode="&#58890;" d="M900.406905 874.727007c0.099873 0 0.099873 0 0 0v-982.752365H191.407003v982.752365h708.999902m0.099874 19.974641H191.407003c-10.986053 0-19.974642-8.988589-19.974642-19.974641v-982.752365c0-10.986053 8.988589-19.974642 19.974642-19.974642h709.099776c10.986053 0 19.974642 8.988589 19.974641 19.974642v982.752365c0 10.986053-8.988589 19.974642-19.974641 19.974641zM246.337267 697.452063H98.52492c-8.788842 0-15.979713 7.190871-15.979714 15.979713s7.190871 15.979713 15.979714 15.979713h147.812347c8.788842 0 15.979713-7.190871 15.979713-15.979713s-7.190871-15.979713-15.979713-15.979713zM246.337267 532.4615229999999H98.52492c-8.788842 0-15.979713 7.190871-15.979714 15.979714s7.190871 15.979713 15.979714 15.979713h147.812347c8.788842 0 15.979713-7.190871 15.979713-15.979713s-7.190871-15.979713-15.979713-15.979714zM246.337267 367.37111100000004H98.52492c-8.788842 0-15.979713 7.190871-15.979714 15.979713s7.190871 15.979713 15.979714 15.979713h147.812347c8.788842 0 15.979713-7.190871 15.979713-15.979713 0-8.688969-7.190871-15.979713-15.979713-15.979713zM246.337267 202.38057200000003H98.52492c-8.788842 0-15.979713 7.190871-15.979714 15.979713s7.190871 15.979713 15.979714 15.979713h147.812347c8.788842 0 15.979713-7.190871 15.979713-15.979713s-7.190871-15.979713-15.979713-15.979713zM246.337267 37.29015900000002H98.52492c-8.788842 0-15.979713 7.190871-15.979714 15.979713s7.190871 15.979713 15.979714 15.979713h147.812347c8.788842 0 15.979713-7.190871 15.979713-15.979713 0-8.688969-7.190871-15.979713-15.979713-15.979713zM721.334244 399.829903h-347.558764c-8.788842 0-15.979713 7.190871-15.979713 15.979714s7.190871 15.979713 15.979713 15.979713h347.558764c8.788842 0 15.979713-7.190871 15.979713-15.979713s-7.190871-15.979713-15.979713-15.979714zM721.733736 244.826685H374.174973c-8.788842 0-15.979713 7.190871-15.979713 15.979713s7.190871 15.979713 15.979713 15.979713h347.558763c8.788842 0 15.979713-7.190871 15.979714-15.979713s-7.190871-15.979713-15.979714-15.979713zM534.671218 404.523944L345.411489 593.783673c-6.192139 6.192139-6.192139 16.379206 0 22.571345 6.192139 6.192139 16.379206 6.192139 22.571345 0l189.259729-189.259729c6.192139-6.192139 6.192139-16.379206 0-22.571345-6.192139-6.292012-16.379206-6.292012-22.571345 0zM556.743197 404.523944l189.259729 189.259729c6.192139 6.192139 6.192139 16.379206 0 22.571345-6.192139 6.192139-16.379206 6.192139-22.571345 0L534.171852 427.095289c-6.192139-6.192139-6.192139-16.379206 0-22.571345 6.192139-6.292012 16.379206-6.292012 22.571345 0zM561.936604 410.216717v-297.622159c0-8.788842-7.190871-15.979713-15.979713-15.979714s-15.979713 7.190871-15.979714 15.979714v297.622159c0 8.788842 7.190871 15.979713 15.979714 15.979713s15.979713-7.190871 15.979713-15.979713z"  horiz-adv-x="1024" />

    
    <glyph glyph-name="icon_add" unicode="&#58893;" d="M480 416V736a32 32 0 0 0 64 0v-320h320a32 32 0 1 0 0-64H544v-320a32 32 0 1 0-64 0V352H160a32 32 0 0 0 0 64h320z"  horiz-adv-x="1024" />

    
    <glyph glyph-name="icon_shanjia" unicode="&#58894;" d="M830.976-80H201.6c-52.928 0-96 43.072-96 96V228.03200000000004c0 17.664 14.336 32 32 32s32-14.336 32-32V16c0-17.6 14.336-32 32-32h629.376c17.6 0 32 14.4 32 32V228.03200000000004c0 17.664 14.336 32 32 32s32-14.336 32-32V16c0-52.928-43.008-96-96-96z m135.04 556.032c-0.192 1.152 0.064 2.304-0.256 3.456l-0.64 2.304c-0.256 0.96-0.128 1.6-0.384 2.624-0.128 0.512-0.512 0.896-0.704 1.408L877.12 809.5360000000001c-3.776 13.952-16.384 23.68-30.848 23.68H186.24c-14.464 0-27.136-9.728-30.912-23.744L68.48 485.824c-0.128-0.512-0.512-0.832-0.64-1.344-0.256-0.96-0.128-1.664-0.384-2.56l-0.64-2.432c-0.32-1.152 0-2.304-0.192-3.456-2.944-12.608-5.312-24.64-5.312-35.968 0-92.608 75.392-168 168-168 56.576 0 106.496 28.288 136.896 71.296 33.088-47.488 87.936-78.784 150.08-78.784s116.992 31.296 150.016 78.784c30.528-42.944 80.384-71.296 136.96-71.296 92.608 0 168 75.392 168 168 0 11.328-2.368 23.36-5.248 35.968z"  horiz-adv-x="1024" />

    
    <glyph glyph-name="icon_fahuo" unicode="&#58895;" d="M950.221 419.447L837.595 547.038c-21.105 23.887-62.644 42.594-94.493 42.594h-93.247v76.747c0 37.318-30.411 67.729-67.729 67.729H104.86c-37.318 0-67.729-30.411-67.729-67.729v-351.402c0-37.318 30.411-67.729 67.729-67.729h10.265v-100.921c0-37.318 30.411-67.729 67.729-67.729h65.331c4.893-58.903 54.394-105.43 114.544-105.43S472.38 19.6 477.273 78.598h160.112c4.893-58.903 54.394-105.43 114.639-105.43 60.15 0 109.651 46.432 114.544 105.43h52.667c37.318 0 67.729 30.411 67.729 67.729v156.37c-2.974 75.115-16.212 93.439-36.742 116.751z m-845.36-132.483c-15.35 0-27.917 12.567-27.917 27.917V666.283c0 15.35 12.472 27.917 27.917 27.917h477.17c15.35 0 27.917-12.472 27.917-27.917v-351.402c0-15.35-12.567-27.917-27.917-27.917h-477.17z m257.963-274.176c-41.443 0-75.115 33.769-75.115 75.211s33.672 75.115 75.115 75.115 75.211-33.672 75.211-75.115c-0.096-41.443-33.769-75.211-75.211-75.211z m389.104 0c-41.443 0-75.211 33.769-75.211 75.211s33.769 75.115 75.211 75.115c41.443 0 75.115-33.672 75.115-75.115 0.096-41.443-33.672-75.211-75.115-75.211z m195.127 251.535v-118.19c0-15.35-12.567-27.917-27.917-27.917h-56.216c-13.335 48.734-58.04 84.804-110.899 84.804-52.955 0-97.659-35.975-110.994-84.804H473.722c-13.335 48.83-57.943 84.804-110.899 84.804-52.955 0-97.659-35.975-110.899-84.804h-68.88c-15.35 0-27.917 12.567-27.917 27.917V247.054H582.22c37.318 0 67.729 30.411 67.729 67.729V549.722h93.247c20.626 0 50.844-13.623 64.563-29.067l123.945-139.678c10.553-14.294 16.117-40.484 15.35-116.654zM799.991 480.172c-6.235 10.745-19.858 18.611-32.33 18.611h-45.76c-15.062 0-27.341-12.279-27.341-27.341v-194.935c0-15.062 12.184-27.341 27.341-27.341h118.861c15.062 0 27.245 12.184 27.245 27.341v69.456c0 9.881-3.742 23.791-8.73 32.33L799.99 480.174z m40.675-203.569H721.901v194.84h45.76c2.686 0 7.387-2.783 8.73-4.988l59.382-101.784c2.59-4.413 4.988-13.526 4.988-18.611l-0.096-69.456z"  horiz-adv-x="1024" />

    
    <glyph glyph-name="icon_shenhe" unicode="&#58896;" d="M512.564-95.14800000000002z m401.413 416.109V723.5029999999999l-39.575 0.565c-1.131 0-89.894 1.696-182.048 39.011-94.417 37.879-155.478 81.979-156.043 82.543 0 0-16.396 17.527-24.311 17.527-7.349 0-23.747-17.527-23.747-17.527-0.563-0.564-61.624-44.099-156.04-82.543-92.155-37.314-180.917-39.011-182.049-39.011l-40.141-0.565v-402.542c0-202.401 261.2-416.109 401.412-416.109 141.341 0 402.542 213.708 402.542 416.109M512.564-14.302000000000021c-93.285 0-320.563 178.656-320.563 335.263V646.613c39.576 4.523 104.027 15.265 171.307 42.403 68.409 27.702 120.988 58.233 149.256 75.758 28.27-18.091 80.282-48.056 149.258-75.758 67.278-27.138 131.73-37.88 171.306-42.403v-325.652c0-156.607-227.842-335.263-320.564-335.263M732.492 480.396h-53.144v51.447H338.432v-54.275h-53.144V581.029h192.791c-3.958 10.177-9.047 20.354-13.568 29.401l57.666 9.611c3.957-11.308 8.481-24.311 12.438-39.012h197.314v-100.634h0.563v0.001zM385.357 234.461v-27.14h-53.144V469.088h152.649V511.49h54.274v-42.402h154.347V209.01999999999998h-53.145v25.441H539.137v-102.333h-54.274V234.461h-99.506z m0 184.874v-44.664h99.505v44.664h-99.505z m0-135.688h99.505V327.17999999999995h-99.505v-43.533z m254.982 135.688H539.137v-44.664h101.202v44.664z m0-135.688V327.17999999999995H539.137v-43.533h101.202z"  horiz-adv-x="1024" />

    
    <glyph glyph-name="icon_details" unicode="&#58897;" d="M230.932 564.273v-1.2c0.71 0.295 1.43 0.582 2.145 0.871l-2.145 0.329zM865.101 634.242L676.452 822.891c-6.692 6.692-15.818 9.551-24.596 8.594H216.017c-36.335 0-65.896-29.56-65.896-65.896v-762.3c0-36.335 29.56-65.897 65.896-65.897h591.637c36.334 0 65.895 29.56 65.895 65.896V608.486c1.353 9.128-1.46 18.77-8.448 25.756z m-64.24-23.515H665.529c-4.113 0-7.721 3.607-7.721 7.72V753.779L800.86 610.727z m12.481-607.44a5.69 5.69 0 0 0-5.688-5.69H216.017a5.689 5.689 0 0 0-5.689 5.69V765.59a5.69 5.69 0 0 0 5.689 5.69h381.585v-152.831c0-37.36 30.567-67.927 67.927-67.927h147.813v-547.234zM316.033 374.496v-7.024c0-14.626 11.966-26.592 26.591-26.592h338.161c14.625 0 26.592 11.966 26.592 26.592v7.024c0 14.625-11.967 26.591-26.592 26.591H342.623c-14.625 0-26.59-11.966-26.59-26.591zM680.784 232.50800000000004h-338.16c-14.626 0-26.592-11.967-26.592-26.592v-7.024c0-14.625 11.966-26.592 26.591-26.592h338.161c14.625 0 26.592 11.966 26.592 26.592v7.024c0 14.626-11.967 26.592-26.592 26.592z"  horiz-adv-x="1024" />

    
    <glyph glyph-name="icon_account" unicode="&#58933;" d="M935 767.7H89c-49.2 0-89-39.8-89-89v-590c0-49.2 39.8-89 89-89h846c49.2 0 89 39.8 89 89v590c0 49.1-39.8 89-89 89z m37-667c0-27.1-21.9-49-49-49H101c-27.1 0-49 21.9-49 49v566c0 27.1 21.9 49 49 49h822c27.1 0 49-21.9 49-49v-566zM454.2 552.9h-282c-14.4 0-26-11.6-26-26s11.6-26 26-26h282c14.4 0 26 11.6 26 26 0 14.3-11.7 26-26 26zM428.2 410.7h-256c-14.4 0-26-11.6-26-26s11.6-26 26-26h256c14.4 0 26 11.6 26 26 0 14.3-11.7 26-26 26zM350.2 268.4h-178c-14.4 0-26-11.6-26-26s11.6-26 26-26h178c14.4 0 26 11.6 26 26s-11.7 26-26 26zM706.8 578.5c-62.9 0-113.8-51-113.8-113.8 0-62.9 51-113.8 113.8-113.8 62.9 0 113.8 51 113.8 113.8s-50.9 113.8-113.8 113.8z m0-175.7c-34.1 0-61.8 27.7-61.8 61.8s27.7 61.8 61.8 61.8 61.8-27.7 61.8-61.8c0-34-27.7-61.8-61.8-61.8zM851.6 216.79999999999995m-26 0a26 26 0 1 1 52 0 26 26 0 1 1-52 0ZM561.6 216.79999999999995m-26 0a26 26 0 1 1 52 0 26 26 0 1 1-52 0ZM587.9 222.20000000000005c2.2 62 52.5 112.3 114.5 114.6 67.6 2.4 123.4-51.8 123.4-118.9h52c0 94.4-76.6 171-171 171s-171-76.6-171-171h52c0 1.4 0 2.8 0.1 4.3z"  horiz-adv-x="1025" />

    
    <glyph glyph-name="icon_arrow_down_small" unicode="&#58901;" d="M555.648 178.94399999999996l258.944 302.08c32 37.312 5.504 94.976-43.648 94.976H253.056c-49.152 0-75.648-57.664-43.648-94.976l258.944-302.08c22.912-26.752 64.384-26.752 87.296 0z"  horiz-adv-x="1024" />

    
    <glyph glyph-name="icon_arrow_down" unicode="&#58902;" d="M77.948 896h1253.906c58.253 0 101.685-62.102 67.555-123.434-27.33-49.207-578.548-775.632-625.702-859.546-30.923-55.109-104.829-54.21-135.816 0-34.58 60.37-588.62 790.58-627.113 862.048C-17.45 827.418 13.729 896 77.948 896z"  horiz-adv-x="1501" />

    
    <glyph glyph-name="icon_arrow_up" unicode="&#58903;" d="M1372.712-128H118.807c-58.253 0-101.685 62.102-67.556 123.434 27.33 49.207 578.548 775.632 625.702 859.546 30.923 55.109 104.829 54.211 135.815 0 34.579-60.37 588.62-790.58 627.113-862.048 28.228-52.35-2.951-120.932-67.17-120.932z"  horiz-adv-x="1501" />

    
    <glyph glyph-name="icon_arrow_up_small" unicode="&#58904;" d="M777.91 151.547H245.449c-29.47 0-53.305 23.65-53.305 53.113 0 13.702 5.256 26.091 13.702 35.476l263.327 351.346c17.64 23.27 50.863 28.152 74.322 10.512 4.134-3.005 7.698-6.569 10.512-10.512l266.318-355.099c17.456-23.277 12.761-56.677-10.696-74.14-9.575-7.317-20.65-10.696-31.72-10.696z m0 0"  horiz-adv-x="1024" />

    
    <glyph glyph-name="icon_move_up" unicode="&#58882;" d="M550.032-49.557000000000016l0 733.558L730.36 496.682c4.796-4.795 12.57-4.79500001 17.367 0l37.627 37.627c4.795 4.796 4.79500001 12.57 0 17.367l-227.011 235.807c-0.229 0.272-0.465 0.541-0.721 0.797l-1.259 1.259-35.009 36.367c-2.568 2.567-5.99 3.746-9.352 3.564-3.369 0.188-6.8-0.991-9.372-3.562l-36.267-37.627c-0.241-0.243-0.463-0.496-0.68-0.752l-227.05-235.852c-4.797-4.796-4.797-12.57 0-17.367l37.627-37.627c4.795-4.795 12.569-4.795 17.367 0L472.264 682.245l0-731.8c0-6.783 5.498-12.28 12.28000001-12.28l53.21299999 0c6.781 0 12.28 5.497 12.28 12.28z"  horiz-adv-x="1024" />

    


  </font>
</defs>
</svg>
